<svg width="65" height="80" viewBox="0 0 65 80" fill="none" xmlns="http://www.w3.org/2000/svg">
<path fill-rule="evenodd" clip-rule="evenodd" d="M16.5886 2.40253C17.2475 0.940991 18.7156 0 20.3424 0H52.7839C55.834 0 57.8227 3.16333 56.4562 5.85417L47.2285 24.0253H60.8851C64.5453 24.0253 66.3754 28.3819 63.7888 30.9286L15.1774 78.791C12.111 81.8102 7.00301 78.7029 8.37761 74.6546L18.74 44.0464H4.10739C3.42312 44.0464 2.74969 43.878 2.14828 43.5567C1.54687 43.2353 1.03652 42.7711 0.663602 42.2062C0.290681 41.6413 0.0669982 40.9937 0.0128715 40.322C-0.0412552 39.6504 0.0758892 38.9761 0.353664 38.3604L16.5886 2.40253Z" fill="#FF9800"/>
</svg>
